<?xml version="1.0" encoding="UTF-8" standalone="no"?>
<!-- Created with Inkscape (http://www.inkscape.org/) -->

<svg
   xmlns:dc="http://purl.org/dc/elements/1.1/"
   xmlns:cc="http://creativecommons.org/ns#"
   xmlns:rdf="http://www.w3.org/1999/02/22-rdf-syntax-ns#"
   xmlns:svg="http://www.w3.org/2000/svg"
   xmlns="http://www.w3.org/2000/svg"
   xmlns:sodipodi="http://sodipodi.sourceforge.net/DTD/sodipodi-0.dtd"
   xmlns:inkscape="http://www.inkscape.org/namespaces/inkscape"
   width="30.236221"
   height="30.236221"
   viewBox="0 0 8 8"
   version="1.1"
   id="svg463"
   inkscape:version="0.92.3 (2405546, 2018-03-11)"
   sodipodi:docname="login2new.svg">
  <defs
     id="defs457" />
  <sodipodi:namedview
     id="base"
     pagecolor="#ffffff"
     bordercolor="#666666"
     borderopacity="1.0"
     inkscape:pageopacity="0.0"
     inkscape:pageshadow="2"
     inkscape:zoom="1.979899"
     inkscape:cx="264.6375"
     inkscape:cy="75.134303"
     inkscape:document-units="px"
     inkscape:current-layer="layer1"
     showgrid="false"
     units="px"
     showborder="false"
     inkscape:window-width="1366"
     inkscape:window-height="745"
     inkscape:window-x="-8"
     inkscape:window-y="-8"
     inkscape:window-maximized="1" />
  <metadata
     id="metadata460">
    <rdf:RDF>
      <cc:Work
         rdf:about="">
        <dc:format>image/svg+xml</dc:format>
        <dc:type
           rdf:resource="http://purl.org/dc/dcmitype/StillImage" />
        <dc:title></dc:title>
      </cc:Work>
    </rdf:RDF>
  </metadata>
  <g
     inkscape:label="Layer 1"
     inkscape:groupmode="layer"
     id="layer1"
     transform="translate(0,-289)">
    <g
       transform="matrix(0.03806346,0,0,0.03806346,-0.03387112,285.6427)"
       id="layer1-5"
       inkscape:label="Layer 1">
      <circle
         r="102.05357"
         cy="193.43452"
         cx="105.83334"
         id="path108"
         style="opacity:1;fill:#ececec;fill-opacity:1;stroke-width:0.21779725" />
      <path
         inkscape:connector-curvature="0"
         id="path82"
         d="m 104.72972,109.7507 a 55.912042,55.912042 0 0 0 -55.912022,55.91201 55.912042,55.912042 0 0 0 32.480144,50.6925 55.912043,55.912043 0 0 0 -31.633191,50.28799 55.912043,55.912043 0 0 0 0.05505,1.10118 h 10.80326 a 44.899065,44.899065 0 0 1 -0.05703,-1.60934 44.899065,44.899065 0 0 1 40.853179,-44.68107 55.912042,55.912042 0 0 0 3.41067,0.12074 55.912042,55.912042 0 0 0 3.70109,-0.18532 44.899065,44.899065 0 0 1 41.83302,44.74565 44.899065,44.899065 0 0 1 -0.0805,1.60934 h 11.26626 a 55.912043,55.912043 0 0 0 0.0391,-1.10118 55.912043,55.912043 0 0 0 -32.47984,-50.69278 55.912042,55.912042 0 0 0 31.6329,-50.28771 55.912042,55.912042 0 0 0 -55.91205,-55.91201 z m -0.21195,10.50473 a 44.899065,44.899065 0 0 1 44.89912,44.8991 44.899065,44.899065 0 0 1 -44.89912,44.89911 44.899065,44.899065 0 0 1 -44.898824,-44.89911 44.899065,44.899065 0 0 1 44.898824,-44.8991 z"
         style="opacity:1;fill:#000000;fill-opacity:1;stroke-width:0.14825162" />
    </g>
  </g>
</svg>
