<?xml version="1.0" encoding="UTF-8" standalone="no"?>
<!-- Created with Inkscape (http://www.inkscape.org/) -->

<svg
   xmlns:dc="http://purl.org/dc/elements/1.1/"
   xmlns:cc="http://creativecommons.org/ns#"
   xmlns:rdf="http://www.w3.org/1999/02/22-rdf-syntax-ns#"
   xmlns:svg="http://www.w3.org/2000/svg"
   xmlns="http://www.w3.org/2000/svg"
   xmlns:sodipodi="http://sodipodi.sourceforge.net/DTD/sodipodi-0.dtd"
   xmlns:inkscape="http://www.inkscape.org/namespaces/inkscape"
   width="210mm"
   height="297mm"
   viewBox="0 0 210 297"
   version="1.1"
   id="svg6709"
   inkscape:version="0.92.3 (2405546, 2018-03-11)"
   sodipodi:docname="image_by_vishal.svg">
  <defs
     id="defs6703">
    <filter
       inkscape:label="Pressed Steel"
       inkscape:menu="Bevels"
       inkscape:menu-tooltip="Pressed metal with a rolled edge"
       style="color-interpolation-filters:sRGB;"
       id="filter6736">
      <feColorMatrix
         result="result2"
         type="luminanceToAlpha"
         in="SourceGraphic"
         id="feColorMatrix6726" />
      <feDiffuseLighting
         lighting-color="#ffffff"
         in="result2"
         diffuseConstant="0.5"
         result="result1"
         surfaceScale="15"
         id="feDiffuseLighting6730">
        <feDistantLight
           azimuth="225"
           elevation="10"
           id="feDistantLight6728" />
      </feDiffuseLighting>
      <feComposite
         result="result9"
         operator="arithmetic"
         k2="1"
         k3="0.8"
         in2="SourceGraphic"
         id="feComposite6732" />
      <feComposite
         in2="SourceGraphic"
         result="fbSourceGraphic"
         operator="in"
         in="result9"
         id="feComposite6734" />
      <feColorMatrix
         result="fbSourceGraphicAlpha"
         in="fbSourceGraphic"
         values="0 0 0 -1 0 0 0 0 -1 0 0 0 0 -1 0 0 0 0 1 0"
         id="feColorMatrix6814" />
      <feGaussianBlur
         id="feGaussianBlur6816"
         stdDeviation="2"
         result="result1"
         in="fbSourceGraphic" />
      <feOffset
         id="feOffset6818"
         dx="2"
         dy="2" />
      <feConvolveMatrix
         id="feConvolveMatrix6820"
         result="result3"
         order="3 3"
         kernelMatrix="2 0 0 0 8 0 4 0 -4 "
         divisor="2"
         bias="0"
         targetX="0" />
      <feComposite
         in2="result1"
         id="feComposite6822"
         operator="xor"
         result="result2"
         in="result3" />
      <feColorMatrix
         id="feColorMatrix6824"
         values="91.7"
         result="fbSourceGraphic"
         type="hueRotate" />
      <feBlend
         in2="result3"
         id="feBlend6826"
         mode="multiply"
         result="result4"
         in="fbSourceGraphic" />
      <feComposite
         in2="result4"
         id="feComposite6828"
         operator="in"
         result="fbSourceGraphic"
         in="fbSourceGraphic" />
      <feColorMatrix
         result="fbSourceGraphicAlpha"
         in="fbSourceGraphic"
         values="0 0 0 -1 0 0 0 0 -1 0 0 0 0 -1 0 0 0 0 1 0"
         id="feColorMatrix7245" />
      <feConvolveMatrix
         id="feConvolveMatrix7247"
         targetY="1"
         targetX="1"
         in="fbSourceGraphic"
         divisor="1"
         kernelMatrix="0 -0.3 0 -0.3 2.2 -0.3 0 -0.3 0"
         order="3 3"
         result="result1" />
      <feBlend
         in2="fbSourceGraphic"
         id="feBlend7249"
         mode="normal"
         result="fbSourceGraphic" />
      <feColorMatrix
         result="fbSourceGraphicAlpha"
         in="fbSourceGraphic"
         values="0 0 0 -1 0 0 0 0 -1 0 0 0 0 -1 0 0 0 0 1 0"
         id="feColorMatrix7395" />
      <feGaussianBlur
         id="feGaussianBlur7397"
         result="result1"
         stdDeviation="3"
         in="fbSourceGraphic" />
      <feBlend
         in2="result1"
         id="feBlend7399"
         result="result5"
         mode="multiply"
         in="result1" />
      <feGaussianBlur
         id="feGaussianBlur7401"
         in="result5"
         result="result6"
         stdDeviation="1" />
      <feComposite
         in2="result5"
         id="feComposite7403"
         result="result8"
         in="result6"
         operator="xor" />
      <feComposite
         in2="result8"
         id="feComposite7405"
         in="result6"
         result="fbSourceGraphic"
         operator="xor" />
      <feSpecularLighting
         id="feSpecularLighting7407"
         in="fbSourceGraphic"
         result="result1"
         lighting-color="rgb(255,255,255)"
         surfaceScale="2"
         specularConstant="2.2"
         specularExponent="55">
        <fePointLight
           id="fePointLight7409"
           x="-5000"
           y="-10000"
           z="20000" />
      </feSpecularLighting>
      <feComposite
         in2="fbSourceGraphic"
         id="feComposite7411"
         in="result1"
         result="result2"
         operator="in" />
      <feComposite
         in2="result2"
         id="feComposite7413"
         in="fbSourceGraphic"
         result="result4"
         operator="arithmetic"
         k2="2"
         k3="1" />
      <feComposite
         in2="result4"
         id="feComposite7415"
         in="result4"
         operator="in"
         result="result91" />
      <feBlend
         in2="result91"
         id="feBlend7417"
         mode="darken" />
    </filter>
    <filter
       style="color-interpolation-filters:sRGB"
       x="-0.25"
       width="1.5"
       y="-0.25"
       height="1.5"
       inkscape:menu="Non-realistic 3D Shaders"
       inkscape:menu-tooltip="Embossed chrome effect"
       inkscape:label="Chrome Emboss"
       id="filter7161">
      <feGaussianBlur
         in="SourceGraphic"
         result="result8"
         stdDeviation="5"
         id="feGaussianBlur7141" />
      <feComposite
         result="result18"
         operator="xor"
         in2="result8"
         id="feComposite7143" />
      <feComposite
         in2="result18"
         result="result16"
         operator="arithmetic"
         k1="1"
         k3="0.5"
         id="feComposite7145" />
      <feComposite
         in="result16"
         operator="xor"
         result="result6"
         in2="result8"
         id="feComposite7147" />
      <feOffset
         in="result6"
         result="result17"
         id="feOffset7149" />
      <feDisplacementMap
         result="result4"
         scale="100"
         yChannelSelector="A"
         xChannelSelector="A"
         in="result17"
         in2="result16"
         id="feDisplacementMap7151" />
      <feComposite
         k3="1"
         in="result4"
         operator="arithmetic"
         result="result2"
         in2="result4"
         id="feComposite7153" />
      <feComposite
         operator="in"
         in="result6"
         result="fbSourceGraphic"
         in2="result2"
         id="feComposite7155" />
      <feComposite
         result="result14"
         operator="over"
         in2="fbSourceGraphic"
         id="feComposite7157" />
      <feComposite
         in="result14"
         operator="in"
         in2="result2"
         result="result15"
         id="feComposite7159" />
    </filter>
    <filter
       inkscape:label="Dots Transparency"
       inkscape:menu="Overlays"
       inkscape:menu-tooltip="Gives a pointillist HSL sensitive transparency"
       style="color-interpolation-filters:sRGB;"
       id="filter7217">
      <feTurbulence
         result="result1"
         numOctaves="3"
         baseFrequency="1"
         type="fractalNoise"
         seed="50"
         id="feTurbulence7205" />
      <feColorMatrix
         result="result0"
         in="SourceGraphic"
         type="luminanceToAlpha"
         id="feColorMatrix7207" />
      <feColorMatrix
         values="1 0 0 0 0 0 1 0 0 0 0 0 1 0 0 0 0 0 0.7 0 "
         result="result2"
         id="feColorMatrix7209" />
      <feComposite
         in="result1"
         operator="over"
         in2="result2"
         result="result3"
         id="feComposite7211" />
      <feColorMatrix
         values="1 0 0 0 0 0 1 0 0 0 0 0 1 0 0 0 0 0 5 -3.2 "
         result="result91"
         id="feColorMatrix7213" />
      <feComposite
         operator="out"
         in="SourceGraphic"
         result="result4"
         in2="result91"
         id="feComposite7215" />
    </filter>
  </defs>
  <sodipodi:namedview
     id="base"
     pagecolor="#ffffff"
     bordercolor="#666666"
     borderopacity="1.0"
     inkscape:pageopacity="0.0"
     inkscape:pageshadow="2"
     inkscape:zoom="0.49497475"
     inkscape:cx="379.07226"
     inkscape:cy="837.28912"
     inkscape:document-units="mm"
     inkscape:current-layer="layer1"
     showgrid="false"
     inkscape:window-width="1920"
     inkscape:window-height="1051"
     inkscape:window-x="-9"
     inkscape:window-y="-9"
     inkscape:window-maximized="1" />
  <metadata
     id="metadata6706">
    <rdf:RDF>
      <cc:Work
         rdf:about="">
        <dc:format>image/svg+xml</dc:format>
        <dc:type
           rdf:resource="http://purl.org/dc/dcmitype/StillImage" />
        <dc:title></dc:title>
      </cc:Work>
    </rdf:RDF>
  </metadata>
  <g
     inkscape:label="Layer 1"
     inkscape:groupmode="layer"
     id="layer1">
    <rect
       style="fill:#f2f2f2;fill-opacity:1;stroke-width:0.26561752;filter:url(#filter6736)"
       id="rect6724"
       width="103.16604"
       height="62.808338"
       x="36.348656"
       y="35.610401"
       ry="9.6217031"
       transform="matrix(0.72009381,-0.00226043,0.00162773,0.99999745,22.788888,0.19893479)" />
    <path
       style="fill:#000000;stroke-width:0.26458335"
       d="m 78.672826,91.671908 c -0.47295,-0.0686 -0.8599,-0.23621 -0.8599,-0.37251 0,-0.1363 0.10581,-0.24782 0.23514,-0.24782 0.12933,0 0.31665,-0.44648 0.41627,-0.99219 0.0996,-0.5457 0.41054,-1.38594 0.69091,-1.8672 0.41857,-0.71848 0.50977,-1.39076 0.50977,-3.75787 0,-1.58556 0.134,-3.17694 0.29778,-3.5364 0.31373,-0.68856 1.60307,-1.20939 1.76813,-0.71423 0.11964,0.35894 0.8445,0.37608 0.8445,0.02 0,-0.14552 0.23813,-0.26458 0.52917,-0.26458 0.29104,0 0.52917,-0.0987 0.52917,-0.21945 0,-0.12069 0.26586,-0.20999 0.5908,-0.19844 0.61785,0.022 0.83728,-0.60439 0.34409,-0.98221 -0.15735,-0.12054 -0.0592,-0.1767 0.23132,-0.13229 0.74115,0.11332 0.96812,-1.00761 0.92189,-4.55303 -0.0297,-2.28058 0.0664,-3.28465 0.38391,-4.00865 0.37208,-0.84852 0.37623,-1.00524 0.0341,-1.28917 -0.2142,-0.17778 -0.38946,-0.23067 -0.38946,-0.11753 0,0.11313 -0.23812,-0.01 -0.52916,-0.2732 -0.29105,-0.26339 -0.52917,-0.61827 -0.52917,-0.78863 0,-0.35712 -1.00254,-1.31634 -1.5875,-1.51891 -0.29254,-0.10131 -0.40493,0.0749 -0.42749,0.67019 -0.052,1.37339 -1.51488,2.16475 -2.76491,1.49575 -0.8471,-0.45335 -0.64504,-1.09628 0.31423,-0.9998 0.54408,0.0547 0.92066,-0.0643 1.10339,-0.34867 0.55609,-0.86549 -0.37173,-2.08513 -4.32221,-5.68165 -5.69511,-5.18481 -7.19375,-7.36943 -7.24095,-10.55536 -0.0296,-1.99879 0.44911,-3.14743 1.61107,-3.86556 1.23226,-0.76158 3.48686,-0.61191 4.45286,0.29559 0.52504,0.49325 0.65943,0.53285 0.65943,0.19434 0,-0.23385 0.22135,-0.49542 0.49189,-0.58129 1.13886,-0.36146 1.23899,-0.0689 1.70926,4.99413 0.24808,2.67091 0.68796,5.78247 0.9775,6.91458 0.55156,2.15657 2.02311,5.15922 2.62713,5.36056 0.23438,0.0781 0.2816,0.002 0.14028,-0.22689 -0.1332,-0.21553 0.0151,-0.18488 0.39584,0.0818 0.63737,0.44643 2.07732,2.73048 1.51948,2.41019 -0.18537,-0.10643 -0.2277,-0.0825 -0.10027,0.0567 0.12126,0.13247 0.35939,0.24627 0.52916,0.25289 0.16978,0.007 0.27892,0.15544 0.24254,0.33073 -0.0364,0.17528 0.0529,0.3187 0.19844,0.3187 0.34234,0 0.34234,-0.44988 0,-0.66146 -0.14553,-0.0899 -0.26459,-0.28258 -0.26459,-0.42811 0,-0.14552 0.11906,-0.19099 0.26459,-0.10106 0.16022,0.099 0.26458,-0.27139 0.26458,-0.93911 0,-1.07631 0.0174,-1.09772 0.7276,-0.89708 0.74925,0.21166 1.39386,0.23247 2.31511,0.0747 0.45459,-0.0778 0.54781,0.0889 0.66145,1.18339 l 0.1323,1.27401 1.02586,-1.37838 c 0.56422,-0.75811 1.36242,-2.10532 1.77379,-2.9938 0.41137,-0.88848 0.75079,-1.43682 0.75427,-1.21854 0.003,0.21828 -0.2313,0.92062 -0.52173,1.56075 -0.29043,0.64013 -0.46442,1.22751 -0.38665,1.30528 0.43614,0.43614 1.98466,-2.76933 1.98466,-4.10831 0,-0.56822 0.10443,-1.14625 0.23207,-1.28449 0.12763,-0.13825 0.43452,-0.9062 0.68199,-1.70656 0.24746,-0.80037 0.52284,-1.6338 0.61196,-1.85209 0.679,-1.66315 0.86249,-8.46666 0.22834,-8.46666 -0.2461,0 -0.4227,1.09829 -0.64879,4.03489 -0.30571,3.9706 -0.80506,6.5613 -1.51669,7.86875 -0.53959,0.99138 -0.48378,0.0963 0.13274,-2.12842 0.66044,-2.38329 1.15868,-6.66548 1.01753,-8.74529 l -0.10996,-1.6202 1.43302,0.16842 c 1.66482,0.19567 2.43571,0.54398 2.43571,1.10054 0,0.30925 0.17139,0.26877 0.7861,-0.1857 1.031044,-0.76228 2.922894,-0.79025 3.904044,-0.0577 1.42672,1.0652 1.79327,1.84598 1.77767,3.78652 -0.0273,3.39589 -1.66813,5.63648 -8.601464,11.7455 -2.52244,2.22254 -3.46804,3.59857 -2.98477,4.34343 0.19733,0.30414 0.57553,0.43641 1.12063,0.39192 0.53429,-0.0436 0.82279,0.0538 0.82279,0.27781 0,1.02773 -1.76771,1.32892 -2.64583,0.4508 -0.3039,-0.30391 -0.53434,-0.89522 -0.54132,-1.38906 l -0.0121,-0.8599 -1.46275,1.5875 c -1.70516,1.85056 -2.00271,2.44199 -1.59738,3.175 0.16752,0.30296 0.29554,1.90606 0.29946,3.7501 0.008,3.75191 0.28755,4.38172 2.27115,5.11652 3.37298,1.2495 3.42425,1.33106 3.42425,5.44791 0,2.73198 0.27152,3.89738 1.0551,4.52862 0.22006,0.17727 0.2779,0.3261 0.12853,0.33073 -0.15648,0.005 -0.2288,0.45696 -0.17065,1.06675 l 0.10093,1.05833 -3.13664,0.003 c -1.72516,0.002 -5.45837,0.0501 -8.29602,0.10792 -2.83766,0.0578 -5.54633,0.049 -6.01927,-0.0196 z m 16.6026,-0.88491 c 0,-0.17074 -2.88567,-0.26315 -8.13594,-0.26053 -5.3506,0.003 -8.00006,0.0919 -7.73906,0.26053 0.54528,0.35238 15.875,0.35238 15.875,0 z m -12.10469,-0.98048 c -0.32742,-0.0631 -0.8632,-0.0631 -1.19062,0 -0.32742,0.0631 -0.0595,0.11467 0.59531,0.11467 0.65485,0 0.92274,-0.0516 0.59531,-0.11467 z m 8.73125,0 c -0.32742,-0.0631 -0.8632,-0.0631 -1.19062,0 -0.32742,0.0631 -0.0595,0.11467 0.59531,0.11467 0.65485,0 0.92274,-0.0516 0.59531,-0.11467 z m 3.37344,-0.18184 c 0,-0.0572 -0.17859,-0.17252 -0.39687,-0.25628 -0.21828,-0.0838 -0.39688,-0.037 -0.39688,0.10398 0,0.14096 0.1786,0.25629 0.39688,0.25629 0.21828,0 0.39687,-0.0468 0.39687,-0.10399 z m -12.10105,-0.34685 c -0.32542,-0.0628 -0.92073,-0.0644 -1.32291,-0.004 -0.40219,0.0608 -0.13593,0.11219 0.59167,0.11418 0.7276,0.002 1.05666,-0.0478 0.73124,-0.11057 z m 1.98074,0.004 c -0.25466,-0.0666 -0.67138,-0.0666 -0.92604,0 -0.25466,0.0666 -0.0463,0.121 0.46302,0.121 0.50932,0 0.71768,-0.0545 0.46302,-0.121 z m 2.24896,-0.004 c -0.32742,-0.0631 -0.86321,-0.0631 -1.19063,0 -0.32742,0.0631 -0.0595,0.11466 0.59532,0.11466 0.65484,0 0.92273,-0.0516 0.59531,-0.11466 z m 5.68854,-0.006 c -0.5457,-0.0571 -1.43867,-0.0571 -1.98438,0 -0.5457,0.0571 -0.0992,0.10379 0.99219,0.10379 1.09141,0 1.53789,-0.0467 0.99219,-0.10379 z m 1.12448,-0.73735 c 0.0728,-0.042 0.0953,-1.4572 0.0501,-3.14498 l -0.0822,-3.06869 -5.60638,0.0598 -5.60637,0.0598 4.88776,0.0787 c 2.68827,0.0433 4.98921,0.18015 5.11322,0.30416 0.27195,0.27195 0.3368,4.85949 0.0747,5.28359 -0.12813,0.20732 -1.88468,0.29938 -5.71252,0.29938 -4.85071,0 -5.55725,-0.0532 -5.77062,-0.43446 -0.13372,-0.23895 -0.18528,-0.65566 -0.11458,-0.92604 0.0787,-0.30103 -0.0116,-0.49316 -0.23303,-0.49564 -0.25617,-0.003 -0.27224,-0.0609 -0.0551,-0.19904 0.17064,-0.10859 0.34652,-1.04505 0.39687,-2.11321 0.0867,-1.83981 0.0661,-1.9182 -0.50488,-1.91762 -0.5642,5.3e-4 -0.59647,0.10775 -0.61736,2.05111 -0.0121,1.12779 -0.0553,2.34818 -0.096,2.71198 -0.0407,0.3638 0.0585,0.74893 0.22048,0.85585 0.19348,0.12772 0.15836,0.19716 -0.10242,0.20249 -0.35278,0.007 -0.35278,0.0375 0,0.2728 0.34583,0.23066 13.36948,0.34427 13.75833,0.12002 z m -1.85209,-3.17096 v -2.24896 h -5.02708 -5.02708 v 2.24896 2.24896 h 5.02708 5.02708 z m -9.3927,-3.30729 c 0.37711,-0.16205 0.11101,-0.22374 -0.92604,-0.21468 -1.20052,0.0105 -1.31629,0.048 -0.66146,0.21468 1.0338,0.26305 0.97533,0.26305 1.5875,0 z m 4.16718,-0.17523 c -0.1819,-0.0734 -0.47955,-0.0734 -0.66145,0 -0.18191,0.0734 -0.0331,0.13345 0.33073,0.13345 0.3638,0 0.51263,-0.0601 0.33072,-0.13345 z m 5.22552,-1.52405 c 0,-0.20699 -0.44648,-0.52016 -0.99218,-0.69593 -0.54571,-0.17577 -1.12711,-0.42617 -1.29202,-0.55644 -0.19059,-0.15056 -0.35428,-0.0949 -0.44929,0.15262 -0.11262,0.29348 0.14061,0.43297 1.02744,0.56596 0.74203,0.11127 1.17689,0.31203 1.17689,0.54332 0,0.20176 0.11906,0.36683 0.26458,0.36683 0.14552,0 0.26458,-0.16936 0.26458,-0.37636 z m -3.9661,-1.10795 c 0.17033,-0.17033 0.017,-0.25581 -0.4446,-0.24776 -0.38756,0.007 -0.75451,0.16191 -0.81545,0.34481 -0.12873,0.3863 0.85225,0.31075 1.26005,-0.097 z m -0.0774,-2.94382 c -0.0608,-0.40218 -0.1122,-0.13593 -0.11418,0.59167 -0.002,0.72761 0.0478,1.05667 0.11057,0.73125 0.0628,-0.32543 0.0644,-0.92074 0.004,-1.32292 z m -0.69376,0.26094 c 0.13853,-3.99012 0.10221,-4.56398 -0.2886,-4.56001 -0.33627,0.003 -0.34008,0.0408 -0.0245,0.24056 0.29158,0.18457 0.24408,0.25631 -0.21628,0.32668 -0.55393,0.0847 -0.59285,0.23141 -0.63821,2.40553 -0.0467,2.2391 -0.0287,2.31534 0.54702,2.3151 0.46685,-2e-4 0.60076,-0.15726 0.62057,-0.72786 z m -0.77724,-0.59531 c 0,-0.3638 0.0601,-0.51263 0.13345,-0.33073 0.0734,0.1819 0.0734,0.47956 0,0.66146 -0.0734,0.1819 -0.13345,0.0331 -0.13345,-0.33073 z m 1.46827,-3.23806 c -0.0633,-0.32912 -0.11747,-0.12215 -0.12041,0.45994 -0.003,0.58208 0.0489,0.85136 0.11507,0.59839 0.0662,-0.25296 0.0686,-0.72921 0.005,-1.05833 z m -0.78795,-1.41971 c -0.0879,-0.0879 -0.31613,-0.0973 -0.50712,-0.0209 -0.21107,0.0845 -0.14837,0.14715 0.15985,0.15985 0.27892,0.0115 0.43519,-0.0511 0.34727,-0.13897 z m 0,-1.5875 c -0.0879,-0.0879 -0.31613,-0.0973 -0.50712,-0.0209 -0.21107,0.0845 -0.14837,0.14715 0.15985,0.15985 0.27892,0.0115 0.43519,-0.0511 0.34727,-0.13897 z m 0.74399,-0.35171 c -0.0959,-0.1552 -0.37573,-0.26837 -0.6218,-0.25149 -0.40336,0.0277 -0.40182,0.0426 0.0156,0.15169 0.25466,0.0666 0.46302,0.25117 0.46302,0.41028 0,0.1591 0.0714,0.21782 0.15878,0.13049 0.0873,-0.0873 0.0803,-0.28577 -0.0156,-0.44097 z m 0.25371,-0.54677 c -0.0899,-0.14552 -0.0502,-0.26458 0.0884,-0.26458 0.13855,0 0.32929,-0.20169 0.42388,-0.44819 0.15213,-0.39644 0.11031,-0.39236 -0.36233,0.0354 -0.46187,0.41799 -0.52789,0.94199 -0.11868,0.94199 0.0728,0 0.0587,-0.11906 -0.0312,-0.26458 z m -0.5347,-1.19062 c -0.0847,-0.75642 -0.0876,-0.75875 -0.51205,-0.4065 -0.2119,0.17587 -0.50133,0.24804 -0.64317,0.16037 -0.29063,-0.17961 -0.65634,0.27151 -0.46763,0.57686 0.0675,0.10914 0.47351,0.19843 0.90236,0.19843 0.62307,0 0.76782,-0.10631 0.72049,-0.52916 z m -6.17843,-0.33073 c 0.32911,-0.41965 0.31975,-0.42901 -0.0999,-0.0999 -0.25467,0.19972 -0.46302,0.40808 -0.46302,0.46302 0,0.21776 0.21727,0.0776 0.56291,-0.36312 z m 11.17005,-0.20985 c -0.0862,-0.22456 -0.21342,-0.35154 -0.28277,-0.28219 -0.0693,0.0694 -0.0476,0.25309 0.0483,0.40829 0.26089,0.42213 0.41338,0.34012 0.23447,-0.1261 z m -1.94338,-1.09297 c 0,-0.0646 -0.11906,-0.0439 -0.26459,0.0461 -0.14552,0.0899 -0.26458,0.0513 -0.26458,-0.0858 0,-0.13714 0.25011,-0.31475 0.55579,-0.39468 0.35599,-0.0931 0.48347,-0.26237 0.35461,-0.47087 -0.14235,-0.23031 -0.42097,-0.0795 -0.95267,0.51554 -0.92853,1.03921 -0.97457,1.52024 -0.09,0.94066 0.3638,-0.23837 0.66146,-0.48627 0.66146,-0.55088 z m -8.82061,-0.15239 c -0.0734,-0.1819 -0.13345,-0.0331 -0.13345,0.33073 0,0.3638 0.0601,0.51263 0.13345,0.33073 0.0734,-0.1819 0.0734,-0.47956 0,-0.66146 z m 10.87607,-1.14159 c -0.0603,-0.0603 -0.33915,0.0765 -0.61957,0.30405 -0.28042,0.22757 -0.36102,0.33837 -0.17912,0.24623 0.1819,-0.0921 0.33435,-0.0117 0.33877,0.17882 0.005,0.20485 0.12276,0.14908 0.28884,-0.13652 0.15443,-0.26558 0.23142,-0.53224 0.17108,-0.59258 z m -9.72838,0.57867 c 0,-0.0549 -0.20836,-0.2633 -0.46302,-0.46302 -0.41964,-0.32911 -0.429,-0.31975 -0.0999,0.0999 0.34565,0.44073 0.56292,0.58088 0.56292,0.36312 z m -1.05833,-0.26867 c 0,-0.0572 -0.18478,-0.17489 -0.41062,-0.26155 -0.23546,-0.0904 -0.34166,-0.046 -0.24897,0.10398 0.15538,0.25141 0.65959,0.37186 0.65959,0.15757 z m 17.1364,-6.19445 c 1.338174,-1.20857 2.421134,-2.28013 2.406574,-2.38125 -0.0683,-0.47461 0.0538,-0.91586 0.21029,-0.75942 0.29682,0.29682 0.8619,-0.36542 0.69126,-0.8101 -0.0992,-0.25846 -0.0536,-0.35422 0.11814,-0.24809 0.15905,0.0983 0.26403,-0.0256 0.2434,-0.28732 -0.0199,-0.2531 0.10827,-0.43184 0.28494,-0.39721 0.19804,0.0388 0.25689,-0.10462 0.15347,-0.37413 -0.1217,-0.31714 -0.0713,-0.37753 0.18349,-0.22003 0.26349,0.16284 0.31393,0.0744 0.20193,-0.35384 -0.0821,-0.314 -0.0413,-0.50418 0.0906,-0.42263 0.30924,0.19112 0.30143,-0.16974 -0.0145,-0.6693 -0.20603,-0.32578 -0.27431,-0.30415 -0.41763,0.13229 -0.92713,2.82349 -2.49298,4.76882 -7.422424,9.22125 -0.74116,0.66944 -1.44486,1.12905 -1.56377,1.02134 -0.11891,-0.10771 -0.13056,-0.047 -0.0259,0.13489 0.10468,0.18191 0.094,0.33166 -0.0237,0.3328 -0.11773,0.001 -0.35868,0.31363 -0.53545,0.69444 -0.23581,0.50799 0.11902,0.27844 1.33241,-0.86196 0.90959,-0.85489 2.74867,-2.54316 4.08685,-3.75173 z m 0.722974,-1.1099 c 0.71667,-0.7276 1.36256,-1.32292 1.43532,-1.32292 0.0728,0 -0.45407,0.59532 -1.17073,1.32292 -0.716674,0.7276 -1.362564,1.32292 -1.435324,1.32292 -0.0728,0 0.45407,-0.59532 1.170734,-1.32292 z m -19.632164,5.4901 c -0.11637,-0.1819 -1.10456,-1.16388 -2.19596,-2.18219 -2.90434,-2.70982 -4.26317,-4.08689 -5.35268,-5.42458 -1.00203,-1.23026 -1.23187,-0.9809 -0.33781,0.36648 0.417,0.62843 7.75887,7.55748 8.01874,7.56786 0.0436,0.002 -0.0159,-0.14566 -0.13229,-0.32757 z m 14.2885,-2.44739 c 0.0286,-0.14552 0.15128,-0.33731 0.27262,-0.4262 0.12134,-0.0889 0.032,-0.23398 -0.19844,-0.32243 -0.37967,-0.14569 -0.51019,0.19993 -0.39646,1.04978 0.0124,0.0929 -0.0972,0.24289 -0.24361,0.33338 -0.14641,0.0905 -0.34729,0.52051 -0.44641,0.95562 -0.16005,0.70259 -0.11641,0.6727 0.39005,-0.26723 0.31364,-0.58209 0.59366,-1.1774 0.62225,-1.32292 z m -15.81081,-0.46302 c -0.4255,-1.02295 -1.13135,-4.48294 -1.35013,-6.61816 -0.0863,-0.84234 -0.26695,-1.4565 -0.40358,-1.37206 -0.13603,0.0841 -0.34854,-0.12072 -0.47224,-0.45511 l -0.2249,-0.60796 -0.18756,0.59097 c -0.10887,0.343 -0.40212,0.59096 -0.6989,0.59096 -0.58254,0 -0.61971,-0.26064 -0.23481,-1.64653 0.21598,-0.77766 0.18723,-1.15205 -0.13651,-1.77809 -0.62567,-1.20993 -1.3744,-1.50589 -2.40522,-0.95076 -1.62311,0.8741 -1.89629,2.9271 -0.71646,5.38423 0.52351,1.09027 1.5822,2.36094 3.84389,4.61355 1.71676,1.70987 3.17149,3.10885 3.23274,3.10885 0.0612,0 -0.0496,-0.38695 -0.24632,-0.85989 z m 18.60722,-1.03216 c 3.944014,-3.66054 5.589964,-6.1427 5.589964,-8.42993 0,-1.61749 -0.80897,-2.6426 -2.08544,-2.6426 -1.244534,0 -1.938984,1.0886 -1.834794,2.87613 0.10039,1.72207 -0.38815,2.11853 -0.96728,0.78496 l -0.38344,-0.88296 -0.0103,1.22284 c -0.0122,1.44355 -1.0701,5.77882 -1.82848,7.49325 -0.29336,0.66318 -0.46595,1.20578 -0.38354,1.20578 0.0824,0 0.93893,-0.73236 1.90336,-1.62747 z m -2.39189,-0.23812 c -0.15478,-0.44399 -0.33051,-0.75816 -0.39052,-0.69815 -0.13102,0.13102 0.36823,1.50541 0.54685,1.50541 0.0688,0 -0.002,-0.36327 -0.15633,-0.80726 z m 0.22074,-1.43006 c 0,-0.21188 -0.10116,-0.32272 -0.2248,-0.2463 -0.12364,0.0764 -0.1563,0.24977 -0.0726,0.38523 0.21395,0.34618 0.29738,0.3072 0.29738,-0.13893 z m 0.30003,-2.39289 c 0,-0.41901 -0.0441,-0.39147 -0.21184,0.13229 -0.1165,0.3638 -0.21183,0.89958 -0.21183,1.19063 0,0.41901 0.0441,0.39147 0.21183,-0.1323 0.11651,-0.3638 0.21184,-0.89958 0.21184,-1.19062 z m -24.07299,-1.58862 c -0.16604,-0.36442 -0.33735,-0.62711 -0.3807,-0.58376 -0.16099,0.16099 0.23484,1.24634 0.45454,1.24634 0.12543,0 0.0922,-0.29816 -0.0738,-0.66258 z m 24.83564,0.0838 c -0.0845,-0.21107 -0.14715,-0.14837 -0.15985,0.15985 -0.0115,0.27892 0.0511,0.43519 0.13897,0.34727 0.0879,-0.0879 0.0973,-0.31612 0.0209,-0.50712 z m 0.70069,-0.41341 c 0.094,-0.4941 0.0539,-0.8599 -0.0943,-0.8599 -0.14188,0 -0.25797,0.43657 -0.25797,0.97014 0,1.13395 0.12274,1.09554 0.35226,-0.11024 z m -26.01684,-0.8599 c 0,-0.14552 -0.0525,-0.26458 -0.11668,-0.26458 -0.0642,0 -0.19026,0.11906 -0.2802,0.26458 -0.0899,0.14552 -0.0374,0.26459 0.11668,0.26459 0.15411,0 0.2802,-0.11907 0.2802,-0.26459 z m 25.31618,-0.84384 c -0.0845,-0.21106 -0.14715,-0.14837 -0.15985,0.15986 -0.0115,0.27891 0.0511,0.43518 0.13897,0.34726 0.0879,-0.0879 0.0973,-0.31612 0.0209,-0.50712 z m 0.8776,0.0184 c 0,-0.14552 -0.11906,-0.19099 -0.26459,-0.10106 -0.14552,0.0899 -0.26458,0.28259 -0.26458,0.42811 0,0.14552 0.11906,0.191 0.26458,0.10106 0.14553,-0.0899 0.26459,-0.28259 0.26459,-0.42811 z m 6.861424,-2.36098 c -0.17305,-0.10695 -0.23201,-0.32815 -0.13102,-0.49155 0.1011,-0.16358 -0.19941,-0.68011 -0.66868,-1.14939 -0.80145,-0.80145 -0.86452,-0.821 -1.05716,-0.3278 -0.11268,0.28847 -0.21324,0.37567 -0.22346,0.19377 -0.0111,-0.1982 -0.36318,-0.32117 -0.8785,-0.30687 l -0.85989,0.0239 0.84172,0.24358 c 1.05019,0.3039 2.793,2.26888 2.58726,2.91709 -0.0808,0.25447 0.008,0.71212 0.19646,1.017 0.31497,0.50857 0.3501,0.45199 0.42561,-0.68546 0.0502,-0.75555 -0.0406,-1.31573 -0.23234,-1.43423 z m -1.70205,-1.31195 c -0.0899,-0.14552 -0.0374,-0.26459 0.11668,-0.26459 0.15411,0 0.2802,0.11907 0.2802,0.26459 0,0.14552 -0.0525,0.26458 -0.11668,0.26458 -0.0642,0 -0.19026,-0.11906 -0.2802,-0.26458 z m -31.695164,2.31819 c -0.0633,-0.32912 -0.11747,-0.12215 -0.1204,0.45993 -0.003,0.58209 0.0488,0.85136 0.11506,0.5984 0.0662,-0.25297 0.0686,-0.72922 0.005,-1.05833 z m 26.68813,-0.003 c -0.0749,-0.47294 -0.19854,-1.38491 -0.2747,-2.0266 -0.0762,-0.64168 -0.21308,-1.23699 -0.30427,-1.32291 -0.17994,-0.16955 0.091,2.99008 0.32132,3.74639 0.23574,0.7743 0.40249,0.51745 0.25765,-0.39688 z m -27.2292,-0.52917 c -0.0734,-0.1819 -0.13345,-0.0331 -0.13345,0.33073 0,0.36381 0.06,0.51263 0.13345,0.33073 0.0734,-0.1819 0.0734,-0.47955 0,-0.66146 z m 28.73706,-1.3345 c -0.18302,-0.32505 0.50436,-1.02499 1.382404,-1.40766 0.43662,-0.19029 0.60211,-0.35064 0.36776,-0.35633 -0.23436,-0.006 -0.849754,0.27714 -1.367554,0.62852 -0.51779,0.35139 -1.01065,0.56967 -1.09525,0.48507 -0.0846,-0.0846 -0.15381,-0.0829 -0.15381,0.004 0,0.0866 0.1871,0.34459 0.41577,0.57326 0.22868,0.22868 0.28821,0.41578 0.13229,0.41578 -0.15591,0 -0.27811,0.32742 -0.27155,0.7276 l 0.0119,0.72761 0.34812,-0.79375 c 0.19147,-0.43657 0.29492,-0.88827 0.22988,-1.00378 z m -22.97289,-0.0347 c -0.11012,-0.58698 -0.39959,-1.07528 -0.74466,-1.25616 -0.53872,-0.28239 -0.54422,-0.27299 -0.12036,0.20561 0.24429,0.27583 0.45052,0.59135 0.45828,0.70114 0.008,0.1098 0.0901,0.5023 0.18292,0.87222 0.25198,1.00396 0.43155,0.58449 0.22382,-0.52281 z m -4.94794,0.7511 c -0.0853,-0.0853 0.22221,-0.49216 0.68333,-0.90417 0.46111,-0.41201 0.74719,-0.84031 0.63573,-0.95177 -0.11147,-0.11147 -0.34356,-0.0618 -0.51576,0.11042 -0.402,0.40201 -0.82606,0.4076 -0.57886,0.008 0.1179,-0.19077 0.0725,-0.23358 -0.121,-0.11401 -0.17038,0.1053 -0.23805,0.30751 -0.15039,0.44935 0.0877,0.14184 0.0198,0.42605 -0.15075,0.63158 -0.28955,0.34888 -0.16988,0.92604 0.192,0.92604 0.0884,0 0.091,-0.0698 0.006,-0.15507 z m 6.83775,-1.09975 c -0.18349,-0.18349 -0.68545,0.18932 -0.68545,0.50909 0,0.17544 0.15181,0.15537 0.40326,-0.0533 0.2218,-0.18408 0.34879,-0.38917 0.28219,-0.45577 z m 18.55127,-0.92799 c -0.0631,-0.32742 -0.11466,-0.0595 -0.11466,0.59531 0,0.65485 0.0516,0.92274 0.11466,0.59532 0.0631,-0.32743 0.0631,-0.86321 0,-1.19063 z m -22.87475,-0.10908 c -0.1819,-0.0734 -0.47955,-0.0734 -0.66145,0 -0.18191,0.0734 -0.0331,0.13345 0.33073,0.13345 0.3638,0 0.51263,-0.06 0.33072,-0.13345 z m 0.1323,-0.53632 c -0.25467,-0.0666 -0.67138,-0.0666 -0.92605,0 -0.25466,0.0666 -0.0463,0.121 0.46303,0.121 0.50932,0 0.71768,-0.0545 0.46302,-0.121 z m 9.19427,32.72613 c 0.72736,-0.31256 1.14511,-0.31256 0.66146,0 -0.21829,0.14107 -0.57547,0.24994 -0.79375,0.24194 -0.26169,-0.01 -0.21663,-0.092 0.13229,-0.24194 z m 9.92187,-19.44687 c 0,-0.36381 0.10255,-0.66146 0.2279,-0.66146 0.12534,0 0.17099,0.29765 0.10144,0.66146 -0.0695,0.3638 -0.17209,0.66145 -0.22789,0.66145 -0.0558,0 -0.10145,-0.29765 -0.10145,-0.66145 z m -14.37882,-13.72715 c 0.57819,-0.3347 11.90318,-0.58391 12.98966,-0.28584 l 0.7277,0.19964 -0.92604,0.21857 c -1.43834,0.3395 -13.39274,0.21578 -12.79132,-0.13237 z m 8.62777,-0.0851 c -0.32542,-0.0628 -0.92073,-0.0644 -1.32291,-0.004 -0.40219,0.0608 -0.13593,0.1122 0.59167,0.11419 0.7276,0.002 1.05666,-0.0478 0.73124,-0.11057 z"
       id="path6722"
       inkscape:connector-curvature="0" />
    <rect
       style="fill:#002b11;fill-opacity:1;stroke-width:0.26458332;filter:url(#filter7161)"
       id="rect7043"
       width="116.26225"
       height="50.781212"
       x="32.606884"
       y="112.31676"
       rx="1.069078"
       ry="9.6217051"
       transform="matrix(0.53073403,0,0,0.34293853,38.977495,71.457718)" />
    <text
       xml:space="preserve"
       style="font-style:normal;font-weight:normal;font-size:10.58333302px;line-height:1.25;font-family:sans-serif;letter-spacing:0px;word-spacing:0px;fill:#000000;fill-opacity:1;stroke:none;stroke-width:0.26458332;filter:url(#filter7217)"
       x="69.741234"
       y="119.27113"
       id="text7165"
       transform="matrix(0.83544892,0,0,0.85952144,14.28037,18.470248)"><tspan
         sodipodi:role="line"
         id="tspan7163"
         x="69.741234"
         y="119.27113"
         style="stroke-width:0.26458332">EVENT</tspan></text>
  </g>
</svg>
